<svg xmlns="http://www.w3.org/2000/svg" width="64" height="64" viewBox="0 0 64 64" fill="none">
  <defs>
    <linearGradient id="tutoGlow" x1="12" y1="10" x2="52" y2="54" gradientUnits="userSpaceOnUse">
      <stop stop-color="#39A0FF"/>
      <stop offset="0.55" stop-color="#9B4DFF"/>
      <stop offset="1" stop-color="#3FFF8F"/>
    </linearGradient>
    <filter id="soft" x="-20%" y="-20%" width="140%" height="140%">
      <feGaussianBlur stdDeviation="1.8" result="blur"/>
      <feMerge>
        <feMergeNode in="blur"/>
        <feMergeNode in="SourceGraphic"/>
      </feMerge>
    </filter>
  </defs>

  <!-- Dark badge -->
  <rect x="6" y="6" width="52" height="52" rx="16" fill="#07090F"/>
  <rect x="6" y="6" width="52" height="52" rx="16" stroke="url(#tutoGlow)" stroke-opacity="0.75" stroke-width="2"/>

  <!-- Lizard-ish gecko swoosh (abstract) -->
  <path
    d="M46.8 18.2c-6.9 0-12.7 3.2-16.2 7.2-2.7 3.1-4.2 6.7-4.2 10.5 0 4.9 2.2 8.9 6.3 10.8 2.6 1.3 5.6 1.7 9 .9 3.4-.8 6.8-2.6 10.1-5.5 1.2-1.0 1.3-2.8.2-4.0-1.0-1.2-2.8-1.3-4.0-.2-2.6 2.2-5.1 3.6-7.4 4.1-2.0.5-3.7.2-5.0-.5-2.1-1.0-3.1-3.0-3.1-5.6 0-2.4 1.0-4.7 2.8-6.8 2.6-2.9 6.9-5.2 12.0-5.2 1.6 0 2.8-1.3 2.8-2.8 0-1.6-1.3-2.9-2.8-2.9Z"
    fill="url(#tutoGlow)"
    filter="url(#soft)"
  />

  <!-- Eye dot -->
  <circle cx="43.2" cy="24.4" r="2.4" fill="#3FFF8F"/>

  <!-- Big T -->
  <path d="M22 22h20v5.2h-7.2V46h-5.6V27.2H22V22Z" fill="#E2E8F0"/>
</svg>